<svg xmlns="http://www.w3.org/2000/svg" version="1.1" xmlns:xlink="http://www.w3.org/1999/xlink" xmlns:svgjs="http://svgjs.com/svgjs" width="1440" height="560" preserveAspectRatio="none" viewBox="0 0 1440 560"><g mask="url(&quot;#SvgjsMask1000&quot;)" fill="none"><rect width="1440" height="560" x="0" y="0" fill="#0e2a47"></rect><path d="M548.44 72.32L552.89 72.32L552.89 76.77L548.44 76.77z" stroke="#d3b714"></path><path d="M1111.43 2.9L1140.28 2.9L1140.28 31.75L1111.43 31.75z" fill="#037b0b"></path><path d="M900.84 552.58 a48.74 48.74 0 1 0 97.48 0 a48.74 48.74 0 1 0 -97.48 0z" stroke="#037b0b"></path><path d="M91.42 313.67L119.47 313.67L119.47 326.5L91.42 326.5z" fill="#d3b714"></path><path d="M1306.96 438.52 a53.26 53.26 0 1 0 106.52 0 a53.26 53.26 0 1 0 -106.52 0z" fill="#037b0b"></path><path d="M230.48 543.49L247.45 543.49L247.45 549.28L230.48 549.28z" fill="#d3b714"></path><path d="M1170.33 282.44 a22.08 22.08 0 1 0 44.16 0 a22.08 22.08 0 1 0 -44.16 0z" fill="#d3b714"></path><path d="M897.73 441.91a17.23 17.23 0 1 0 34-5.59z" fill="#d3b714"></path><path d="M940.31 136.64a45.07 45.07 0 1 0-22.06-87.4z" fill="#e73635"></path><path d="M147.56 114.77a31.51 31.51 0 1 0 51.18 36.78z" stroke="#d3b714"></path><path d="M1280.36 402.8L1309.33 402.8L1309.33 415.37L1280.36 415.37z" fill="#d3b714"></path><path d="M744.83 559.05a40.93 40.93 0 1 0-19.78-79.43z" fill="#e73635"></path><path d="M177.08 242.77L180.18 242.77L180.18 245.87L177.08 245.87z" fill="#037b0b"></path><path d="M1419.76 503.53L1432.28 503.53L1432.28 516.05L1419.76 516.05z" stroke="#037b0b"></path><path d="M478.73 280.86L515.93 280.86L515.93 318.06L478.73 318.06z" fill="#e73635"></path><path d="M482.29 269L494.18 269L494.18 306.18L482.29 306.18z" stroke="#d3b714"></path><path d="M631.1 338.9L641.36 338.9L641.36 365.15L631.1 365.15z" fill="#037b0b"></path><path d="M1409.98 335.52L1436.05 335.52L1436.05 360.12L1409.98 360.12z" stroke="#037b0b"></path><path d="M923.77 522.59L928.61 522.59L928.61 541.31L923.77 541.31z" fill="#e73635"></path><path d="M69.34 8.1 a55.56 55.56 0 1 0 111.12 0 a55.56 55.56 0 1 0 -111.12 0z" stroke="#d3b714"></path><path d="M1037.58 410.74L1070.11 410.74L1070.11 435.3L1037.58 435.3z" stroke="#e73635"></path><path d="M697.48 244.08 a55.18 55.18 0 1 0 110.36 0 a55.18 55.18 0 1 0 -110.36 0z" fill="#e73635"></path><path d="M924.45 345.21L924.79 345.21L924.79 372.05L924.45 372.05z" fill="#037b0b"></path><path d="M514.51 533.72 a22.63 22.63 0 1 0 45.26 0 a22.63 22.63 0 1 0 -45.26 0z" fill="#037b0b"></path><path d="M794.41 266.65a1.52 1.52 0 1 0-0.35-3.02z" stroke="#e73635"></path><path d="M1152.68 218 a32.31 32.31 0 1 0 64.62 0 a32.31 32.31 0 1 0 -64.62 0z" stroke="#e73635"></path><path d="M670.73 94.18a22.89 22.89 0 1 0-24.64 38.59z" stroke="#037b0b"></path><path d="M1336.28 43.71L1342.11 43.71L1342.11 49.54L1336.28 49.54z" stroke="#037b0b"></path><path d="M1435.81 242.13L1446.71 242.13L1446.71 258.44L1435.81 258.44z" stroke="#e73635"></path><path d="M1235.66 186.83L1255.46 186.83L1255.46 206.63L1235.66 206.63z" fill="#e73635"></path><path d="M801 127.24L852.87 127.24L852.87 179.11L801 179.11z" stroke="#d3b714"></path><path d="M204.86 417.88a9.61 9.61 0 1 0-18.96 3.21z" stroke="#e73635"></path><path d="M727.61 208.6L736.57 208.6L736.57 217.56L727.61 217.56z" fill="#d3b714"></path></g><defs><mask id="SvgjsMask1000"><rect width="1440" height="560" fill="#ffffff"></rect></mask></defs></svg>